<?xml version="1.0" standalone="no"?>
<!DOCTYPE svg PUBLIC "-//W3C//DTD SVG 20010904//EN"
 "http://www.w3.org/TR/2001/REC-SVG-20010904/DTD/svg10.dtd">
<svg version="1.0" xmlns="http://www.w3.org/2000/svg"
 width="100.000000pt" height="100.000000pt" viewBox="0 0 100.000000 100.000000"
 preserveAspectRatio="xMidYMid meet">

<g transform="translate(0.000000,100.000000) scale(0.100000,-0.100000)"
fill="#000000" stroke="none">
<path d="M543 986 c-18 -8 -38 -24 -44 -35 -12 -18 -15 -18 -40 -5 -100 51
-217 -34 -205 -148 l5 -48 -70 0 c-38 0 -84 -6 -103 -14 -87 -36 -112 -151
-49 -227 22 -26 24 -34 14 -55 -45 -100 40 -212 151 -200 l48 5 0 -70 c0 -38
6 -84 14 -103 36 -87 151 -112 227 -49 26 22 34 24 55 14 100 -45 212 40 200
152 l-5 47 70 0 c80 0 127 16 157 55 44 55 37 154 -12 193 -22 16 -23 20 -10
43 21 38 17 101 -9 140 -32 49 -81 71 -139 65 l-48 -5 0 72 c0 81 -18 128 -61
160 -35 25 -105 31 -146 13z m109 -83 c16 -14 18 -34 18 -190 l0 -173 -65 0
-65 0 0 168 c0 135 3 172 16 190 18 27 69 30 96 5z m-210 -40 c13 -11 18 -30
18 -65 l0 -48 -45 0 c-53 0 -85 25 -85 67 0 55 70 85 112 46z m18 -258 l0 -65
-168 0 c-190 0 -212 7 -212 62 0 64 13 68 207 68 l173 0 0 -65z m402 48 c22
-20 23 -70 1 -95 -11 -13 -30 -18 -65 -18 l-48 0 0 45 c0 73 64 112 112 68z
m-612 -238 c0 -32 -6 -51 -20 -65 -41 -41 -110 -14 -110 43 0 47 25 67 82 67
l48 0 0 -45z m210 -123 c0 -190 -7 -212 -62 -212 -64 0 -68 13 -68 207 l0 173
65 0 65 0 0 -168z m438 152 c27 -18 30 -69 5 -96 -14 -16 -34 -18 -190 -18
l-173 0 0 65 0 65 168 0 c135 0 172 -3 190 -16z m-248 -214 c41 -41 14 -110
-43 -110 -47 0 -67 25 -67 82 l0 48 45 0 c32 0 51 -6 65 -20z"/>
</g>
</svg>
