<svg version="1.1" xmlns="http://www.w3.org/2000/svg" xmlns:xlink="http://www.w3.org/1999/xlink" width="22" height="22" viewBox="0,0,256,256"><g fill="#000000" fill-rule="evenodd" stroke="none" stroke-width="1" stroke-linecap="butt" stroke-linejoin="miter" stroke-miterlimit="10" stroke-dasharray="" stroke-dashoffset="0" font-family="none" font-weight="none" font-size="none" text-anchor="none" style="mix-blend-mode: normal"><g transform="translate(-0.00006,0) scale(11.63636,11.63636)"><path d="M11.1249,0.5488c0.2138,0.36856 0.1961,0.8274 -0.0458,1.17825c-0.7336,1.06447 -1.16311,2.35357 -1.16311,3.74629c0,3.65094 2.95971,6.61066 6.61061,6.61066c1.3928,0 2.6819,-0.4295 3.7463,-1.1632c0.3509,-0.2417 0.8097,-0.2595 1.1783,-0.0457c0.3685,0.2139 0.5807,0.6211 0.5449,1.0457c-0.477,5.6462 -5.2094,10.0792 -10.9783,10.0792c-6.08498,0 -11.0178,-4.9328 -11.0178,-11.0178c0,-5.76892 4.43301,-10.50133 10.0792,-10.97828c0.4246,-0.03586 0.8318,0.17632 1.0457,0.54487zM8.17985,2.63461c-3.47533,1.18112 -5.9763,4.47271 -5.9763,8.34759c0,4.868 3.94626,8.8142 8.81425,8.8142c3.8749,0 7.1665,-2.5009 8.3476,-5.9762c-0.8913,0.303 -1.8463,0.4673 -2.8388,0.4673c-4.8679,0 -8.81416,-3.9462 -8.81416,-8.81416c0,-0.99248 0.16438,-1.94752 0.46741,-2.83873z"></path></g></g></svg>